<?xml version="1.0" standalone="no"?>
<!DOCTYPE svg PUBLIC "-//W3C//DTD SVG 20010904//EN"
 "http://www.w3.org/TR/2001/REC-SVG-20010904/DTD/svg10.dtd">
<svg version="1.0" xmlns="http://www.w3.org/2000/svg"
 width="880.000000pt" height="880.000000pt" viewBox="0 0 880.000000 880.000000"
 preserveAspectRatio="xMidYMid meet">
<metadata>
Created by potrace 1.14, written by Peter Selinger 2001-2017
</metadata>
<g transform="translate(0.000000,880.000000) scale(0.100000,-0.100000)"
fill="#000000" stroke="none">
<path d="M4534 7840 c-247 -248 -819 -822 -1271 -1277 l-823 -826 0 756 0 757
-845 0 -845 0 0 -2850 0 -2850 845 0 845 0 0 765 0 765 896 -892 c492 -491
1068 -1065 1279 -1275 l383 -382 356 358 c197 197 917 920 1601 1607 l1244
1249 -329 329 c-182 182 -330 335 -330 342 0 7 148 161 329 342 l329 331
-1605 1598 c-882 879 -1606 1599 -1607 1600 -1 2 -205 -200 -452 -447z m1403
-1835 l925 -922 -303 -304 c-166 -167 -316 -319 -332 -336 l-29 -33 333 -330
332 -330 -24 -26 c-13 -15 -366 -370 -784 -790 -418 -420 -760 -764 -760 -764
1 0 -67 -68 -149 -150 l-150 -150 -22 22 c-12 13 -585 583 -1273 1268 l-1252
1245 26 22 c14 12 25 24 25 26 0 2 486 491 1080 1088 594 596 1080 1087 1080
1091 0 4 9 10 20 13 11 3 20 10 20 14 0 4 64 71 142 149 113 112 145 139 156
130 7 -6 430 -426 939 -933z"/>
<path d="M4960 5475 c0 -10 -3 -16 -6 -12 -8 8 -34 -18 -34 -34 0 -7 -3 -9 -6
-6 -8 8 -44 -31 -44 -46 0 -6 -2 -8 -5 -5 -8 7 -122 -105 -117 -114 2 -5 -1
-8 -5 -8 -5 0 -34 -25 -65 -55 -31 -30 -54 -55 -51 -55 3 0 -13 -15 -36 -34
-22 -18 -37 -36 -34 -40 4 -3 -1 -6 -10 -6 -9 0 -17 -4 -17 -9 0 -5 -13 -23
-30 -39 -16 -17 -30 -29 -30 -27 0 3 -10 -6 -23 -18 -13 -12 -22 -25 -20 -29
2 -4 -5 -9 -15 -12 -11 -4 -24 -18 -31 -32 -6 -14 -15 -23 -20 -19 -5 3 -12
-4 -16 -15 -4 -11 -11 -18 -16 -15 -5 4 -9 2 -9 -3 0 -5 -20 -29 -45 -54 -25
-25 -45 -44 -45 -41 0 3 -8 -5 -19 -18 -36 -45 -120 -127 -125 -121 -4 3 -6
-2 -6 -11 0 -9 -7 -17 -15 -17 -8 0 -15 -3 -15 -8 0 -12 -87 -102 -99 -102 -6
0 -11 -7 -11 -15 0 -8 -9 -19 -20 -25 -11 -6 -20 -16 -20 -23 0 -7 34 -46 75
-86 41 -41 75 -78 75 -83 0 -4 8 -8 17 -8 9 0 14 -3 11 -6 -6 -5 38 -54 47
-54 6 0 45 -39 45 -45 0 -9 49 -53 54 -47 3 3 6 -3 6 -13 0 -10 3 -16 6 -12 8
8 34 -18 34 -34 0 -7 2 -10 5 -7 7 6 155 -142 155 -155 0 -6 3 -8 6 -5 7 7 74
-62 74 -76 0 -5 2 -7 5 -4 7 6 355 -340 355 -353 0 -5 4 -9 10 -9 5 0 27 -18
49 -40 22 -22 43 -40 47 -40 4 0 38 32 76 70 38 39 73 70 78 70 6 0 10 5 10
11 0 14 55 69 69 69 6 0 10 6 9 13 -2 6 3 11 10 9 8 -1 11 1 8 6 -2 4 13 23
34 41 22 19 37 38 33 44 -3 5 -2 8 3 5 11 -7 174 158 165 167 -3 4 -1 5 5 3
11 -3 200 183 196 195 -1 4 2 7 7 7 13 0 251 237 251 250 0 5 3 9 8 8 9 -3 62
50 62 63 0 6 4 8 9 5 5 -3 12 1 15 10 3 8 10 12 16 9 5 -3 10 1 10 10 0 10
-33 50 -74 90 -41 40 -72 76 -69 79 4 3 1 6 -4 6 -15 0 -83 67 -76 74 4 3 1 6
-5 6 -15 0 -472 457 -472 472 0 6 -3 9 -6 5 -3 -3 -79 67 -169 156 -219 218
-215 215 -215 192z"/>
</g>
</svg>
